<?xml version="1.0" encoding="utf-8"?>
<!-- Generator: Adobe Illustrator 24.0.2, SVG Export Plug-In . SVG Version: 6.00 Build 0)  -->
<svg version="1.1" id="Capa_1" xmlns="http://www.w3.org/2000/svg" xmlns:xlink="http://www.w3.org/1999/xlink" x="0px" y="0px"
	 viewBox="0 0 509.983 143.577" enable-background="new 0 0 509.983 143.577" xml:space="preserve">
<g>
	<g>
		<path fill="#080707" d="M2.145,113.51l26.51-69.03h9.841l28.252,69.03H56.343L48.29,92.603H19.426l-7.581,20.907H2.145z
			 M22.063,85.163h23.402L33.364,51.731L22.063,85.163z"/>
		<path fill="#080707" d="M175.898,113.51V44.48h23.779c5.368,0,9.464,0.33,12.29,0.989c3.956,0.911,7.33,2.559,10.124,4.944
			c3.641,3.077,6.364,7.009,8.169,11.795c1.805,4.788,2.708,10.258,2.708,16.41c0,5.243-0.612,9.888-1.836,13.938
			c-1.224,4.05-2.794,7.401-4.708,10.053c-1.916,2.653-4.011,4.741-6.286,6.263c-2.276,1.523-5.023,2.677-8.241,3.461
			c-3.218,0.785-6.914,1.177-11.089,1.177H175.898z M185.033,105.364h14.738c4.551,0,8.123-0.424,10.712-1.271
			s4.654-2.04,6.192-3.579c2.166-2.166,3.853-5.078,5.062-8.735c1.208-3.657,1.813-8.091,1.813-13.302
			c0-7.22-1.185-12.768-3.555-16.646c-2.371-3.876-5.25-6.474-8.641-7.793c-2.448-0.941-6.388-1.413-11.819-1.413h-14.503V105.364z"
			/>
		<path fill="#080707" d="M272.331,113.51V44.48h26.04c4.583,0,8.083,0.22,10.5,0.659c3.391,0.565,6.231,1.641,8.523,3.226
			c2.291,1.585,4.135,3.807,5.532,6.663c1.396,2.856,2.096,5.996,2.096,9.417c0,5.87-1.868,10.838-5.604,14.903
			c-3.736,4.066-10.485,6.098-20.248,6.098h-17.704v28.064H272.331z M281.467,77.299h17.846c5.901,0,10.092-1.098,12.572-3.296
			c2.479-2.197,3.72-5.289,3.72-9.276c0-2.888-0.729-5.36-2.189-7.416c-1.46-2.056-3.383-3.414-5.768-4.073
			c-1.539-0.408-4.38-0.612-8.523-0.612h-17.657V77.299z"/>
		<path fill="#080707" d="M321.915,113.51l26.511-69.03h9.841l28.253,69.03h-10.406l-8.052-20.907h-28.865l-7.581,20.907H321.915z
			 M341.833,85.163h23.403l-12.102-33.432L341.833,85.163z"/>
		<path fill="#080707" d="M390.71,91.332l8.617-0.753c0.407,3.454,1.357,6.286,2.849,8.5c1.49,2.213,3.806,4.002,6.945,5.368
			c3.139,1.366,6.67,2.048,10.595,2.048c3.484,0,6.561-0.518,9.229-1.554c2.668-1.036,4.653-2.456,5.956-4.262
			c1.303-1.805,1.954-3.774,1.954-5.909c0-2.166-0.628-4.057-1.883-5.674c-1.257-1.616-3.328-2.974-6.216-4.073
			c-1.853-0.722-5.949-1.844-12.29-3.367c-6.342-1.522-10.783-2.958-13.326-4.309c-3.296-1.726-5.752-3.869-7.369-6.428
			c-1.617-2.558-2.425-5.422-2.425-8.593c0-3.484,0.989-6.741,2.967-9.771c1.978-3.029,4.865-5.329,8.664-6.898
			c3.798-1.569,8.021-2.354,12.666-2.354c5.117,0,9.63,0.824,13.538,2.472s6.914,4.073,9.018,7.275
			c2.103,3.202,3.232,6.828,3.39,10.877l-8.758,0.659c-0.471-4.363-2.064-7.659-4.779-9.889c-2.716-2.229-6.727-3.343-12.031-3.343
			c-5.525,0-9.551,1.012-12.078,3.037c-2.527,2.024-3.79,4.466-3.79,7.322c0,2.48,0.895,4.521,2.684,6.122
			c1.758,1.601,6.349,3.242,13.773,4.92c7.424,1.68,12.518,3.147,15.28,4.403c4.018,1.853,6.984,4.199,8.899,7.04
			c1.914,2.841,2.872,6.114,2.872,9.818c0,3.673-1.052,7.134-3.155,10.383s-5.125,5.776-9.064,7.581s-8.374,2.708-13.302,2.708
			c-6.247,0-11.482-0.911-15.704-2.731c-4.222-1.82-7.533-4.56-9.935-8.217C392.099,100.083,390.835,95.946,390.71,91.332z"/>
		<path fill="#080707" d="M455.032,91.332l8.617-0.753c0.407,3.454,1.357,6.286,2.849,8.5c1.49,2.213,3.806,4.002,6.945,5.368
			c3.139,1.366,6.67,2.048,10.595,2.048c3.484,0,6.561-0.518,9.229-1.554c2.668-1.036,4.653-2.456,5.956-4.262
			c1.303-1.805,1.954-3.774,1.954-5.909c0-2.166-0.628-4.057-1.883-5.674c-1.257-1.616-3.328-2.974-6.216-4.073
			c-1.853-0.722-5.949-1.844-12.29-3.367c-6.342-1.522-10.783-2.958-13.326-4.309c-3.296-1.726-5.752-3.869-7.369-6.428
			c-1.617-2.558-2.425-5.422-2.425-8.593c0-3.484,0.989-6.741,2.967-9.771c1.978-3.029,4.865-5.329,8.664-6.898
			c3.798-1.569,8.021-2.354,12.666-2.354c5.117,0,9.63,0.824,13.538,2.472c3.908,1.648,6.914,4.073,9.018,7.275
			c2.103,3.202,3.232,6.828,3.39,10.877l-8.758,0.659c-0.471-4.363-2.064-7.659-4.779-9.889c-2.716-2.229-6.727-3.343-12.031-3.343
			c-5.525,0-9.551,1.012-12.078,3.037c-2.527,2.024-3.79,4.466-3.79,7.322c0,2.48,0.895,4.521,2.684,6.122
			c1.758,1.601,6.349,3.242,13.773,4.92c7.424,1.68,12.518,3.147,15.28,4.403c4.018,1.853,6.984,4.199,8.899,7.04
			c1.914,2.841,2.872,6.114,2.872,9.818c0,3.673-1.052,7.134-3.155,10.383s-5.125,5.776-9.064,7.581s-8.374,2.708-13.302,2.708
			c-6.247,0-11.482-0.911-15.704-2.731c-4.222-1.82-7.533-4.56-9.935-8.217C456.42,100.083,455.157,95.946,455.032,91.332z"/>
	</g>
	<g>
		<path d="M272.687,143.276v-17.665h11.917v2.084h-9.579v5.471h8.29v2.084h-8.29v8.025H272.687z"/>
		<path d="M300.642,134.672c0-2.932,0.787-5.228,2.361-6.886c1.574-1.659,3.606-2.488,6.097-2.488c1.631,0,3.101,0.39,4.41,1.169
			s2.308,1.866,2.995,3.259c0.687,1.394,1.029,2.975,1.029,4.742c0,1.792-0.361,3.394-1.084,4.808
			c-0.723,1.414-1.747,2.484-3.072,3.211c-1.326,0.727-2.756,1.09-4.29,1.09c-1.663,0-3.149-0.402-4.458-1.205
			c-1.31-0.803-2.302-1.899-2.977-3.29C300.979,137.693,300.642,136.223,300.642,134.672z M303.051,134.708
			c0,2.129,0.572,3.806,1.718,5.031c1.145,1.225,2.58,1.837,4.308,1.837c1.759,0,3.207-0.618,4.344-1.855
			c1.137-1.237,1.705-2.992,1.705-5.266c0-1.438-0.243-2.693-0.729-3.766c-0.486-1.072-1.197-1.904-2.133-2.494
			c-0.936-0.59-1.986-0.886-3.15-0.886c-1.655,0-3.079,0.568-4.271,1.705C303.648,130.152,303.051,132.049,303.051,134.708z"/>
		<path d="M341.153,143.276v-17.665h7.832c1.574,0,2.771,0.159,3.591,0.476s1.474,0.877,1.964,1.681
			c0.49,0.803,0.735,1.691,0.735,2.663c0,1.253-0.406,2.31-1.218,3.169c-0.812,0.86-2.064,1.406-3.759,1.639
			c0.618,0.297,1.088,0.59,1.409,0.88c0.683,0.626,1.33,1.41,1.94,2.35l3.072,4.808h-2.939l-2.338-3.675
			c-0.683-1.06-1.245-1.872-1.688-2.434c-0.441-0.562-0.837-0.956-1.187-1.181c-0.35-0.225-0.705-0.381-1.066-0.47
			c-0.265-0.056-0.699-0.084-1.302-0.084h-2.711v7.844H341.153z M343.489,133.407h5.025c1.067,0,1.903-0.11,2.506-0.332
			c0.603-0.221,1.061-0.574,1.374-1.06c0.313-0.486,0.47-1.014,0.47-1.584c0-0.835-0.304-1.522-0.91-2.061
			c-0.606-0.538-1.564-0.807-2.874-0.807h-5.591V133.407z"/>
		<path d="M399.979,143.276v-17.665h2.338v15.58h8.699v2.084H399.979z"/>
		<path d="M433.85,143.276v-17.665h2.337v17.665H433.85z"/>
		<path d="M460.997,143.276v-17.665h11.917v2.084h-9.579v5.471h8.29v2.084h-8.29v8.025H460.997z"/>
		<path d="M489.711,143.276v-17.665h12.772v2.084h-10.435v5.41h9.771v2.073h-9.771v6.013h10.844v2.084H489.711z"/>
	</g>
	<g>
		<path fill="#E22120" d="M128.75,12.184c0,6.728-5.456,12.183-12.184,12.183c-6.729,0-12.184-5.455-12.184-12.183
			C104.383,5.455,109.837,0,116.567,0C123.294,0,128.75,5.455,128.75,12.184z"/>
		<polygon fill="#E32132" points="161.88,63.21 130.998,63.21 130.998,32.328 102.135,32.328 102.135,63.21 71.253,63.21
			71.253,92.073 102.135,92.073 102.135,122.955 130.998,122.955 130.998,92.073 161.88,92.073 		"/>
	</g>
</g>
</svg>
