<svg id="Capa_1" data-name="Capa 1" xmlns="http://www.w3.org/2000/svg" viewBox="0 0 3237.09 912.6"><path d="M639.25,24V405.55a13.21,13.21,0,0,0,13.17,13.12,12.5,12.5,0,0,0,7.88-2.61h0a52.19,52.19,0,0,1,29-9.23,50,50,0,1,1,0,100c-11.18,0-21-3.27-29-9.18a15.65,15.65,0,0,0-7.88-2.66c-7.23,0-13.17,5.91-13.17,13.8V627.19H880.07Z" style="fill:#ff671d;fill-rule:evenodd"/><path d="M20.12,271.37H402.39c7.26,0,12.51-5.94,12.51-13.19a14.06,14.06,0,0,0-2-7.89h0a49.31,49.31,0,0,1-9.86-28.94c0-27.61,23-50,50-50a50,50,0,0,1,50.05,50c0,10.54-3.31,21.08-9.22,28.94a14.06,14.06,0,0,0-2,7.89A13.23,13.23,0,0,0,505,271.37H623.45V29.93Z" style="fill:#ff671d;fill-rule:evenodd"/><path d="M267.51,890.29V508.16A13.18,13.18,0,0,0,254.34,495c-2.62,0-5.24,1.31-7.9,2.66h0c-7.89,5.91-17.73,9.18-28.93,9.18a50,50,0,1,1,0-100,52,52,0,0,1,28.93,9.23c2,2,5.28,2.61,7.9,2.61a13.18,13.18,0,0,0,13.17-13.12V287.13H26Z" style="fill:#ff671d;fill-rule:evenodd"/><path d="M886,643H504.38c-7.23,0-12.51,5.94-12.51,13.13a17.3,17.3,0,0,0,2,7.88h0a47.67,47.67,0,0,1,9.22,29c0,27-22.41,50-50.05,50-27,0-50-23-50-50a48,48,0,0,1,9.86-29,17.23,17.23,0,0,0,2-7.88A13.2,13.2,0,0,0,401.77,643H283.31v241.4Z" style="fill:#ff671d;fill-rule:evenodd"/><path d="M2799.65,523.31c-9.29,2.35-17,6.25-24.74,10.89-17.82,10-26.32,24.72-26.32,43.34,0,11.63,3,20.89,10,27.87,6.21,7.75,13.91,11.56,23.26,11.56,6.14,0,12.34-.79,17.76-3.09,11.61-3.85,21.67-11.6,31-23.2,13.17-17.75,20.12-36.4,20.12-54.95V517.91h-11.61C2825.23,517.91,2812,519.5,2799.65,523.31Zm0,134.71a112.88,112.88,0,0,1-28.67,3.85c-27.86,0-49.53-7.71-64.24-22.41-15.45-14.7-22.47-34.85-22.47-59.59,0-37.2,16.26-62.7,48-78.22a239.54,239.54,0,0,1,67.37-18.54,359.25,359.25,0,0,1,51.1-3.83V426.6c-2.3-14.69-7.74-24.74-15.5-30.18-8.51-6.17-18.55-9.3-31-9.3h-4.62c-13.92.81-24.74,5.43-31.73,13.94-8.5,8.5-12.43,19.35-12.43,33.27h-61.16c0-27.11,9.32-49.51,27.12-66.56,16.26-15.5,42.62-24,78.2-25.53h9.28c33.31,0,58.89,8.51,75.11,24.73s24.76,42.59,24.76,78.23V654.91h-58.05V617c-5.41,10.88-15.5,20.88-28.66,31A73.17,73.17,0,0,1,2799.65,658ZM2243,349.23h55.73l48,222.1,68.17-222.1H2459l66.61,222.1,49.56-222.1h55.77l-69,305.68h-60.37l-64.25-212-62.69,212h-61.2Zm828.4,307.25L2955.29,349.23h64.23L3100,569.8l72.8-220.57h64.25l-151.77,437.3h-56.51ZM1753.69,349.23H1811v61.9c7-17.83,18.59-33.27,33.28-48q23.28-20.85,62.74-20.89V404.9c-29.41,0-52.66,9.33-69.7,27.11-17.77,17.82-26.32,48.77-26.32,92.84V654.91h-57.28Zm-63.49,308a212.6,212.6,0,0,1-45.69,4.65c-34.07,0-58-7-72-19.37-13.15-13.1-20.1-31.68-20.1-54.93V394.09h-54.23V349.23h54.23v-72l58-35.66V349.23h84.38v44.86h-84.38V557.4c0,23.22,3.93,39.51,12.43,47.21,7.75,8.55,20.11,12.36,36.35,12.36a102.32,102.32,0,0,0,31-4.63Zm-495.5-308H1252V415c9.28-20.08,20.93-37.11,35.6-51.84q22.07-20.85,62.71-20.89c31.76,0,52.64,10,65,31,11.6,20.09,17.05,43.37,17.05,69.67v212h-57.29V487.77c0-33.3-2.33-56.55-7-68.87-3.88-12.38-15.49-18.65-34.84-18.65-22.44,0-41.82,12.4-57.29,38-16.27,26.29-24,54.92-24,86.6V654.91H1194.7Zm867.92,174.08a102.89,102.89,0,0,0-24.82,10.89c-17,10-26.29,24.72-26.29,43.34,0,11.63,3.07,20.89,10.06,27.87A29.59,29.59,0,0,0,2044.82,617c6.17,0,12.37-.79,17.8-3.09,11.58-3.85,21.67-11.6,30.94-23.2,14-17.75,20.9-36.4,20.9-54.95V517.91h-11.58C2088.17,517.91,2075,519.5,2062.62,523.31Zm0,134.71a108.22,108.22,0,0,1-28.68,3.85c-27.85,0-48.78-7.71-64.23-22.41-14.73-14.7-22.44-34.85-22.44-59.59,0-37.2,16.24-62.7,48-78.22,20.18-8.48,42.58-15.43,67.4-18.54a361.07,361.07,0,0,1,51.84-3.83V426.6c-3-14.69-8.49-24.74-16.22-30.18-8.57-6.17-18.61-9.3-30.95-9.3h-4.67c-14,.81-24.82,5.43-31.78,13.94-8.5,8.5-12.34,19.35-12.34,33.27h-61.16c0-27.11,9.27-49.51,27.05-66.56,17.08-15.5,42.57-24,78.23-25.53h9.3c34,0,58.82,8.51,75,24.73,17.08,16.27,24.84,42.59,24.84,78.23V654.91h-57.34V617c-6.18,10.88-16.22,20.88-29.4,31C2078.86,652.58,2071.1,655.7,2062.62,658ZM1032.12,212.21h64.27v442.7h-64.27Z" style="fill:#ff671d"/></svg>